<?xml version="1.0" encoding="UTF-8" standalone="no"?>
<svg
   xmlns:dc="http://purl.org/dc/elements/1.1/"
   xmlns:cc="http://creativecommons.org/ns#"
   xmlns:rdf="http://www.w3.org/1999/02/22-rdf-syntax-ns#"
   xmlns:svg="http://www.w3.org/2000/svg"
   xmlns="http://www.w3.org/2000/svg"
   xmlns:sodipodi="http://sodipodi.sourceforge.net/DTD/sodipodi-0.dtd"
   xmlns:inkscape="http://www.inkscape.org/namespaces/inkscape"
   version="1.1"
   id="svg51676"
   viewBox="0 0 150 149.99999"
   height="42.333332mm"
   width="42.333332mm"
   inkscape:version="0.91 r"
   sodipodi:docname="logo.svg">
  <sodipodi:namedview
     pagecolor="#ffffff"
     bordercolor="#666666"
     borderopacity="1"
     objecttolerance="10"
     gridtolerance="10"
     guidetolerance="10"
     inkscape:pageopacity="0"
     inkscape:pageshadow="2"
     inkscape:window-width="1280"
     inkscape:window-height="745"
     id="namedview9"
     showgrid="false"
     inkscape:zoom="2.2250294"
     inkscape:cx="74.999998"
     inkscape:cy="74.999998"
     inkscape:window-x="0"
     inkscape:window-y="30"
     inkscape:window-maximized="1"
     inkscape:current-layer="layer1-6" />
  <defs
     id="defs51678" />
  <metadata
     id="metadata51681">
    <rdf:RDF>
      <cc:Work
         rdf:about="">
        <dc:format>image/svg+xml</dc:format>
        <dc:type
           rdf:resource="http://purl.org/dc/dcmitype/StillImage" />
        <dc:title />
      </cc:Work>
    </rdf:RDF>
  </metadata>
  <g
     transform="translate(-297.04725,-451.1811)"
     id="layer1">
    <rect
       y="452.77173"
       x="298.63788"
       height="146.81874"
       width="146.81874"
       id="rect52228"
       style="color:#000000;display:inline;overflow:visible;visibility:visible;fill:#000000;fill-opacity:1;fill-rule:nonzero;stroke:#000000;stroke-width:3.18125606;stroke-linecap:butt;stroke-linejoin:miter;stroke-miterlimit:4;stroke-dasharray:none;stroke-dashoffset:0;stroke-opacity:1;marker:none;enable-background:accumulate" />
    <g
       transform="translate(130.35684,218.05989)"
       id="text52224"
       style="font-style:normal;font-weight:normal;font-size:40px;line-height:125%;font-family:Sans;letter-spacing:0px;word-spacing:0px;fill:#ffffff;fill-opacity:1;stroke:#ffffff;stroke-width:3;stroke-linecap:butt;stroke-linejoin:miter;stroke-miterlimit:4;stroke-dasharray:none;stroke-opacity:1" />
    <path
       d="m 351.50678,563.22248 c -0.0551,-0.15876 -4.32092,-13.53789 -9.47964,-29.7314 -10.62183,-33.34256 -10.78152,-33.77025 -13.70042,-36.69591 -1.73075,-1.73474 -3.27629,-2.59105 -5.78686,-3.20617 -0.94442,-0.2314 -1.75424,-0.5321 -1.79962,-0.66821 -0.13566,-0.40704 2.17584,-0.55645 4.8558,-0.31389 7.23525,0.65486 10.92658,3.02925 13.78498,8.86701 0.62151,1.26932 3.10455,8.90779 7.63034,23.473 3.68996,11.87523 6.76333,21.7732 6.82972,21.99546 0.10138,0.3394 0.40482,0.40402 1.8948,0.40354 l 1.77411,-4.5e-4 7.02161,-26.8443 c 3.86189,-14.76447 7.07013,-26.97875 7.12941,-27.14295 0.0767,-0.2126 0.54259,-0.2791 1.61798,-0.23094 l 1.51018,0.0676 9.46753,27.07579 9.46753,27.07579 1.65122,0 1.6512,0 6.86037,-22.91916 c 3.77319,-12.60554 6.97099,-23.53619 7.10623,-24.29033 0.48339,-2.69546 -0.29527,-4.74111 -2.14559,-5.63684 -1.03029,-0.49875 -3.48189,-0.94629 -5.22762,-0.95428 -0.8002,-0.004 -0.98355,-0.0797 -0.9237,-0.38317 0.0647,-0.32797 0.3834,-0.36656 2.3839,-0.28864 3.80137,0.14804 19.57023,0.0793 20.37901,-0.0888 0.63104,-0.1312 0.7505,-0.0885 0.7505,0.26829 0,0.36627 -0.27048,0.44626 -1.97774,0.58478 -2.49949,0.20281 -5.10283,0.86394 -6.64137,1.68662 -1.64332,0.8787 -3.44243,2.76357 -4.29528,4.50002 -0.39232,0.79879 -5.01262,15.42899 -10.26732,32.51156 l -9.554,31.05922 -1.27386,0.0685 -1.27387,0.0685 -0.92,-2.72416 c -0.506,-1.49829 -4.78961,-14.10292 -9.51911,-28.0103 -4.72952,-13.90736 -8.91075,-26.20399 -9.29163,-27.32583 -0.38087,-1.12186 -0.77043,-1.95318 -0.86566,-1.8474 -0.0953,0.10578 -3.79806,13.62287 -8.22848,30.03798 l -8.05529,29.84563 -1.21961,10e-4 c -0.76927,7e-4 -1.25657,-0.10539 -1.31975,-0.28742 l 0,8e-5 z m -28.26971,-74.74411 c -1.35409,0 -2.53236,0.0839 -3.58652,0.25257 -0.91092,0.0958 -1.91414,0.68779 -2.4045,1.49019 -0.49673,0.81285 -0.60364,1.65702 -0.60364,2.52572 0,0.72175 0.0384,1.33782 0.21468,1.97259 0.17633,0.63476 0.56412,1.51327 1.58616,1.92208 l 0.053,0.0228 0.053,0.0177 c 0.6189,0.2063 1.41872,0.39963 2.53583,0.63901 l 0.0252,0.005 0.0228,0.003 c 1.09036,0.20444 1.94547,0.50482 2.57118,0.84612 l 0.0303,0.0151 0.0303,0.0151 c 0.71902,0.35952 1.33097,0.82386 1.87155,1.42452 l 0.0328,0.0379 0.0379,0.0379 c 0.49511,0.49512 1.00375,1.23043 1.47503,2.24032 l 0.0329,0.0732 0.0403,0.0707 c 0.55732,0.97531 1.14132,2.21006 1.73265,3.68504 l 19.71581,61.76916 8.37279,0 13.73995,-50.80246 17.25324,50.80246 8.29449,0 19.51377,-63.42604 0.008,-0.0202 c 0.7699,-2.72964 1.88598,-4.2649 3.1824,-5.02114 l 0.0104,-0.005 0.0103,-0.008 c 1.56796,-0.94078 3.64132,-1.46745 6.33453,-1.46745 0.95312,0 1.75472,-0.0729 2.5434,-0.32835 0.9373,-0.28377 1.57447,-1.07281 1.86399,-1.76042 0.29333,-0.69666 0.39302,-1.39251 0.43947,-2.18223 l 0.003,-0.0556 0,-0.0581 c 0,-0.94401 -0.25155,-1.88807 -0.71984,-2.70758 -0.65584,-1.14771 -2.08524,-1.79326 -3.31375,-1.79326 l -0.0607,0 -0.0607,0.005 c -1.22924,0.0768 -2.26483,0.15402 -3.13443,0.23237 -0.81533,0.003 -1.60206,0.0424 -2.36408,0.11367 l -2.41207,0 -2.90963,0 -6.20066,0 c -1.76752,-0.0768 -3.89073,-0.19139 -6.36484,-0.34603 l -0.0581,-0.005 -0.0607,0 c -1.2012,0 -2.57629,0.70601 -3.19756,1.79327 -0.4683,0.81951 -0.72237,1.76356 -0.72237,2.70758 l 0,0.0581 0.005,0.0556 c 0.0454,0.77079 0.13152,1.43436 0.37634,2.09887 0.24481,0.66452 0.7609,1.50556 1.76042,1.83873 l 0.0404,0.0129 0.0403,0.0129 c 0.80121,0.22892 1.65571,0.30814 2.62675,0.30814 1.27471,0 2.26445,0.0885 2.89196,0.21974 0.62751,0.13134 0.82051,0.35257 0.66427,0.1768 l 0.0758,0.0834 0.0833,0.0758 c -0.23743,-0.21105 -0.10824,-0.26183 -0.096,0.22983 0.0116,0.48772 -0.0965,1.35873 -0.37632,2.48533 l -11.57794,38.62593 -17.63967,-50.43118 -8.92592,0 -13.07569,49.94876 -11.52994,-37.02462 -0.0303,-0.0732 c -1.88102,-4.66167 -4.41808,-8.14084 -7.73378,-10.2115 -3.24252,-2.15226 -7.59596,-3.14206 -13.00748,-3.22283 l -0.0129,0 -0.0151,0 z m -0.0177,3.87952 c 4.96628,0.0755 8.58916,1.02403 10.92881,2.58382 l 0.0252,0.0177 0.0278,0.0151 c 2.40726,1.4964 4.51192,4.20972 6.19308,8.36268 l 13.65409,43.83903 3.38952,0 14.19964,-54.23492 3.17736,0 18.97073,54.23492 3.16978,0 13.57831,-45.30395 0.0129,-0.0429 c 0.33573,-1.34293 0.51902,-2.486 0.49252,-3.54613 -0.0254,-1.0155 -0.28281,-2.08877 -1.12395,-2.90964 -0.7638,-0.81534 -1.67777,-1.14247 -2.68738,-1.35378 -1.04068,-0.21782 -2.24407,-0.30309 -3.68503,-0.30309 -0.42154,0 -0.61193,-0.0542 -0.8941,-0.0909 -0.0264,-0.14614 -0.0473,-0.21312 -0.0657,-0.44959 0.004,-0.21371 0.0713,-0.39056 0.15407,-0.57586 2.37147,0.14697 4.45998,0.2631 6.19308,0.33845 l 0.0403,0.003 6.32694,0 2.90964,0 2.54088,0 0.096,-0.0104 c 0.70584,-0.0706 1.45823,-0.10862 2.25295,-0.10862 l 0.0859,0 0.0884,-0.008 c 0.79194,-0.072 1.79707,-0.1437 2.95763,-0.21722 0.0843,0.18786 0.15325,0.36612 0.1566,0.58344 -0.0206,0.24364 -0.0451,0.31543 -0.0732,0.44705 -0.24195,0.0385 -0.41016,0.0885 -0.88906,0.0885 -3.1962,0 -6.00365,0.63281 -8.31217,2.01301 -2.42619,1.41667 -4.02383,3.99351 -4.96053,7.3145 l -18.65248,60.61996 -2.64697,0 -20.45586,-60.22846 -16.28841,60.22846 -2.56866,0 -18.91012,-59.23838 -0.0252,-0.0631 c -0.62765,-1.56914 -1.26241,-2.91612 -1.92208,-4.0841 -0.60381,-1.28678 -1.32183,-2.38524 -2.1999,-3.27334 -0.84142,-0.92603 -1.83659,-1.6877 -2.95258,-2.25042 -1.07392,-0.58055 -2.30078,-0.979 -3.67997,-1.23761 l 0.0506,0.0103 c -0.66733,-0.143 -0.95059,-0.23036 -1.34116,-0.3334 -0.0155,-0.15874 -0.0353,-0.19843 -0.0353,-0.44705 0,-0.1856 -10e-4,-0.11794 0.0151,-0.20712 0.73821,-0.10319 1.59357,-0.18108 2.68233,-0.18184 z"
       style="color:#000000;display:inline;overflow:visible;visibility:visible;fill:#ffffff;fill-opacity:1;fill-rule:nonzero;stroke:#ffffff;stroke-width:0.69277072;stroke-linecap:butt;stroke-linejoin:miter;stroke-miterlimit:4;stroke-dasharray:none;stroke-dashoffset:0;stroke-opacity:1;marker:none;enable-background:accumulate"
       id="path52237" />
  </g>
  <g
     transform="translate(13280.303,-12977.314)"
     id="layer1-6">
    <path
       inkscape:connector-curvature="0"
       id="use11233"
       d="m -13265.398,13009.299 a 0.83050204,0.83050204 0 0 1 -0.83,0.829 0.83050204,0.83050204 0 0 1 -0.831,-0.829 0.83050204,0.83050204 0 0 1 0.831,-0.832 0.83050204,0.83050204 0 0 1 0.83,0.832 z"
       style="color:#000000;display:inline;overflow:visible;visibility:visible;fill:#ffffff;fill-opacity:1;fill-rule:nonzero;stroke:none;stroke-width:5;stroke-linecap:butt;stroke-linejoin:miter;stroke-miterlimit:4;stroke-dasharray:20, 5;stroke-dashoffset:0;stroke-opacity:1;marker:none;enable-background:accumulate" />
    <path
       inkscape:connector-curvature="0"
       id="use11443"
       d="m -13198.724,13061.342 a 0.30473447,0.30473447 0 0 1 -0.304,0.305 0.30473447,0.30473447 0 0 1 -0.306,-0.305 0.30473447,0.30473447 0 0 1 0.306,-0.304 0.30473447,0.30473447 0 0 1 0.304,0.304 z"
       style="color:#000000;display:inline;overflow:visible;visibility:visible;fill:#ffffff;fill-opacity:1;fill-rule:nonzero;stroke:none;stroke-width:5;stroke-linecap:butt;stroke-linejoin:miter;stroke-miterlimit:4;stroke-dasharray:20, 5;stroke-dashoffset:0;stroke-opacity:1;marker:none;enable-background:accumulate" />
    <path
       inkscape:connector-curvature="0"
       id="use11455"
       d="M -13236.202,13051.543 Z"
       style="color:#000000;display:inline;overflow:visible;visibility:visible;fill:#ffffff;fill-opacity:1;fill-rule:nonzero;stroke:none;stroke-width:5;stroke-linecap:butt;stroke-linejoin:miter;stroke-miterlimit:4;stroke-dasharray:20, 5;stroke-dashoffset:0;stroke-opacity:1;marker:none;enable-background:accumulate" />
    <path
       inkscape:connector-curvature="0"
       id="use11465"
       d="m -13170.2,13125.119 a 0.72189522,0.72189522 0 0 1 -0.723,0.722 0.72189522,0.72189522 0 0 1 -0.721,-0.722 0.72189522,0.72189522 0 0 1 0.721,-0.722 0.72189522,0.72189522 0 0 1 0.723,0.722 z"
       style="color:#000000;display:inline;overflow:visible;visibility:visible;fill:#ffffff;fill-opacity:1;fill-rule:nonzero;stroke:none;stroke-width:5;stroke-linecap:butt;stroke-linejoin:miter;stroke-miterlimit:4;stroke-dasharray:20, 5;stroke-dashoffset:0;stroke-opacity:1;marker:none;enable-background:accumulate" />
    <path
       inkscape:connector-curvature="0"
       id="use11519"
       d="m -13237.556,13086.898 a 0.60046723,0.60046723 0 0 1 -0.601,0.601 0.60046723,0.60046723 0 0 1 -0.601,-0.601 0.60046723,0.60046723 0 0 1 0.601,-0.6 0.60046723,0.60046723 0 0 1 0.601,0.6 z"
       style="color:#000000;display:inline;overflow:visible;visibility:visible;fill:#ffffff;fill-opacity:1;fill-rule:nonzero;stroke:none;stroke-width:5;stroke-linecap:butt;stroke-linejoin:miter;stroke-miterlimit:4;stroke-dasharray:20, 5;stroke-dashoffset:0;stroke-opacity:1;marker:none;enable-background:accumulate" />
    <path
       inkscape:connector-curvature="0"
       id="use11627"
       d="m -13270.204,13009.456 a 0.63997986,0.63997986 0 0 1 -0.64,0.639 0.63997986,0.63997986 0 0 1 -0.64,-0.639 0.63997986,0.63997986 0 0 1 0.64,-0.641 0.63997986,0.63997986 0 0 1 0.64,0.641 z"
       style="color:#000000;display:inline;overflow:visible;visibility:visible;fill:#ffffff;fill-opacity:1;fill-rule:nonzero;stroke:none;stroke-width:5;stroke-linecap:butt;stroke-linejoin:miter;stroke-miterlimit:4;stroke-dasharray:20, 5;stroke-dashoffset:0;stroke-opacity:1;marker:none;enable-background:accumulate" />
    <path
       inkscape:connector-curvature="0"
       id="use13011"
       d="m -13200.057,13089.201 a 0.53612025,0.53612025 0 0 1 -0.535,0.536 0.53612025,0.53612025 0 0 1 -0.536,-0.536 0.53612025,0.53612025 0 0 1 0.536,-0.536 0.53612025,0.53612025 0 0 1 0.535,0.536 z"
       style="color:#000000;display:inline;overflow:visible;visibility:visible;fill:#ffffff;fill-opacity:1;fill-rule:nonzero;stroke:none;stroke-width:5;stroke-linecap:butt;stroke-linejoin:miter;stroke-miterlimit:4;stroke-dasharray:20, 5;stroke-dashoffset:0;stroke-opacity:1;marker:none;enable-background:accumulate" />
    <path
       inkscape:connector-curvature="0"
       id="use13397"
       d="m -13268.76,13056.497 a 0.61247867,0.61247867 0 0 1 -0.612,0.613 0.61247867,0.61247867 0 0 1 -0.613,-0.613 0.61247867,0.61247867 0 0 1 0.613,-0.612 0.61247867,0.61247867 0 0 1 0.612,0.612 z"
       style="color:#000000;display:inline;overflow:visible;visibility:visible;fill:#ffffff;fill-opacity:1;fill-rule:nonzero;stroke:none;stroke-width:5;stroke-linecap:butt;stroke-linejoin:miter;stroke-miterlimit:4;stroke-dasharray:20, 5;stroke-dashoffset:0;stroke-opacity:1;marker:none;enable-background:accumulate" />
    <path
       inkscape:connector-curvature="0"
       id="use13863"
       d="m -13242.372,13034.444 a 0.1246058,0.1246058 0 0 1 -0.127,0.128 0.1246058,0.1246058 0 0 1 -0.128,-0.128 0.1246058,0.1246058 0 0 1 0.128,-0.128 0.1246058,0.1246058 0 0 1 0.127,0.128 z"
       style="color:#000000;display:inline;overflow:visible;visibility:visible;fill:#ffffff;fill-opacity:1;fill-rule:nonzero;stroke:none;stroke-width:5;stroke-linecap:butt;stroke-linejoin:miter;stroke-miterlimit:4;stroke-dasharray:20, 5;stroke-dashoffset:0;stroke-opacity:1;marker:none;enable-background:accumulate" />
    <path
       inkscape:connector-curvature="0"
       id="use14015"
       d="m -13228.881,13106.038 a 0.61466139,0.61466139 0 0 1 -0.615,0.615 0.61466139,0.61466139 0 0 1 -0.614,-0.615 0.61466139,0.61466139 0 0 1 0.614,-0.615 0.61466139,0.61466139 0 0 1 0.615,0.615 z"
       style="color:#000000;display:inline;overflow:visible;visibility:visible;fill:#ffffff;fill-opacity:1;fill-rule:nonzero;stroke:none;stroke-width:5;stroke-linecap:butt;stroke-linejoin:miter;stroke-miterlimit:4;stroke-dasharray:20, 5;stroke-dashoffset:0;stroke-opacity:1;marker:none;enable-background:accumulate" />
    <path
       inkscape:connector-curvature="0"
       id="use22023"
       d="m -13265.25,13078.921 a 0.59113456,0.59113456 0 0 1 -0.59,0.591 0.59113456,0.59113456 0 0 1 -0.593,-0.591 0.59113456,0.59113456 0 0 1 0.593,-0.591 0.59113456,0.59113456 0 0 1 0.59,0.591 z"
       style="color:#000000;display:inline;overflow:visible;visibility:visible;fill:#ffffff;fill-opacity:1;fill-rule:nonzero;stroke:none;stroke-width:5;stroke-linecap:butt;stroke-linejoin:miter;stroke-miterlimit:4;stroke-dasharray:20, 5;stroke-dashoffset:0;stroke-opacity:1;marker:none;enable-background:accumulate" />
    <path
       style="color:#000000;display:inline;overflow:visible;visibility:visible;fill:#ffffff;fill-opacity:1;fill-rule:nonzero;stroke:none;stroke-width:5;stroke-linecap:butt;stroke-linejoin:miter;stroke-miterlimit:4;stroke-dasharray:20, 5;stroke-dashoffset:0;stroke-opacity:1;marker:none;enable-background:accumulate"
       d="m -13256.819,13000.489 a 0.08093845,0.08093845 0 0 1 -0.09,0.09 0.08093845,0.08093845 0 0 1 -0.09,-0.09 0.08093845,0.08093845 0 0 1 0.09,-0.09 0.08093845,0.08093845 0 0 1 0.09,0.09 z"
       id="use22129"
       inkscape:connector-curvature="0" />
    <path
       inkscape:connector-curvature="0"
       id="use22495"
       d="m -13263.473,12997.786 a 0.0532952,0.0532952 0 0 1 -0.05,0.05 0.0532952,0.0532952 0 0 1 -0.05,-0.05 0.0532952,0.0532952 0 0 1 0.05,-0.05 0.0532952,0.0532952 0 0 1 0.05,0.05 z"
       style="color:#000000;display:inline;overflow:visible;visibility:visible;fill:#ffffff;fill-opacity:1;fill-rule:nonzero;stroke:none;stroke-width:5;stroke-linecap:butt;stroke-linejoin:miter;stroke-miterlimit:4;stroke-dasharray:20, 5;stroke-dashoffset:0;stroke-opacity:1;marker:none;enable-background:accumulate" />
    <path
       inkscape:connector-curvature="0"
       id="use22615"
       d="m -13171.117,13118.022 a 0.83567909,0.83567909 0 0 1 -0.837,0.836 0.83567909,0.83567909 0 0 1 -0.835,-0.836 0.83567909,0.83567909 0 0 1 0.835,-0.836 0.83567909,0.83567909 0 0 1 0.837,0.836 z"
       style="color:#000000;display:inline;overflow:visible;visibility:visible;fill:#ffffff;fill-opacity:1;fill-rule:nonzero;stroke:none;stroke-width:5;stroke-linecap:butt;stroke-linejoin:miter;stroke-miterlimit:4;stroke-dasharray:20, 5;stroke-dashoffset:0;stroke-opacity:1;marker:none;enable-background:accumulate" />
    <path
       inkscape:connector-curvature="0"
       style="color:#000000;display:inline;overflow:visible;visibility:visible;fill:#ffffff;fill-opacity:1;fill-rule:nonzero;stroke:none;stroke-width:5;stroke-linecap:butt;stroke-linejoin:miter;stroke-miterlimit:4;stroke-dasharray:20, 5;stroke-dashoffset:0;stroke-opacity:1;marker:none;enable-background:accumulate"
       d="m -13232.142,12996.613 a 1.2167173,1.2167173 0 0 1 -1.216,1.219 1.2167173,1.2167173 0 0 1 -1.217,-1.219 1.2167173,1.2167173 0 0 1 1.217,-1.216 1.2167173,1.2167173 0 0 1 1.216,1.216 z"
       id="use23653" />
    <path
       inkscape:connector-curvature="0"
       style="color:#000000;display:inline;overflow:visible;visibility:visible;fill:#ffffff;fill-opacity:1;fill-rule:nonzero;stroke:none;stroke-width:5;stroke-linecap:butt;stroke-linejoin:miter;stroke-miterlimit:4;stroke-dasharray:20, 5;stroke-dashoffset:0;stroke-opacity:1;marker:none;enable-background:accumulate"
       d="m -13177.676,13120.128 a 1.1732417,1.1732417 0 0 1 -1.173,1.172 1.1732417,1.1732417 0 0 1 -1.175,-1.172 1.1732417,1.1732417 0 0 1 1.175,-1.173 1.1732417,1.1732417 0 0 1 1.173,1.173 z"
       id="use24459" />
    <path
       style="color:#000000;display:inline;overflow:visible;visibility:visible;fill:#ffffff;fill-opacity:1;fill-rule:nonzero;stroke:none;stroke-width:5;stroke-linecap:butt;stroke-linejoin:miter;stroke-miterlimit:4;stroke-dasharray:20, 5;stroke-dashoffset:0;stroke-opacity:1;marker:none;enable-background:accumulate"
       d="m -13217.494,13123.335 a 0.14125733,0.14125733 0 0 1 -0.14,0.142 0.14125733,0.14125733 0 0 1 -0.142,-0.142 0.14125733,0.14125733 0 0 1 0.142,-0.141 0.14125733,0.14125733 0 0 1 0.14,0.141 z"
       id="use24763"
       inkscape:connector-curvature="0" />
    <path
       inkscape:connector-curvature="0"
       style="color:#000000;display:inline;overflow:visible;visibility:visible;fill:#ffffff;fill-opacity:1;fill-rule:nonzero;stroke:none;stroke-width:5;stroke-linecap:butt;stroke-linejoin:miter;stroke-miterlimit:4;stroke-dasharray:20, 5;stroke-dashoffset:0;stroke-opacity:1;marker:none;enable-background:accumulate"
       d="m -13143.407,13116.172 a 0.98607784,0.98607784 0 0 1 -0.987,0.986 0.98607784,0.98607784 0 0 1 -0.985,-0.986 0.98607784,0.98607784 0 0 1 0.985,-0.985 0.98607784,0.98607784 0 0 1 0.987,0.985 z"
       id="use24793" />
    <path
       inkscape:connector-curvature="0"
       style="color:#000000;display:inline;overflow:visible;visibility:visible;fill:#ffffff;fill-opacity:1;fill-rule:nonzero;stroke:none;stroke-width:5;stroke-linecap:butt;stroke-linejoin:miter;stroke-miterlimit:4;stroke-dasharray:20, 5;stroke-dashoffset:0;stroke-opacity:1;marker:none;enable-background:accumulate"
       d="m -13258.616,13109.684 a 0.32874966,0.32874966 0 0 1 -0.328,0.329 0.32874966,0.32874966 0 0 1 -0.329,-0.329 0.32874966,0.32874966 0 0 1 0.329,-0.329 0.32874966,0.32874966 0 0 1 0.328,0.329 z"
       id="use24809" />
    <path
       style="color:#000000;display:inline;overflow:visible;visibility:visible;fill:#ffffff;fill-opacity:1;fill-rule:nonzero;stroke:none;stroke-width:5;stroke-linecap:butt;stroke-linejoin:miter;stroke-miterlimit:4;stroke-dasharray:20, 5;stroke-dashoffset:0;stroke-opacity:1;marker:none;enable-background:accumulate"
       d="m -13234.98,13059.789 a 0.12928843,0.12928843 0 0 1 -0.13,0.13 0.12928843,0.12928843 0 0 1 -0.129,-0.13 0.12928843,0.12928843 0 0 1 0.129,-0.13 0.12928843,0.12928843 0 0 1 0.13,0.13 z"
       id="use25389"
       inkscape:connector-curvature="0" />
  </g>
</svg>
