<?xml version="1.0" standalone="no"?>
<!DOCTYPE svg PUBLIC "-//W3C//DTD SVG 20010904//EN"
 "http://www.w3.org/TR/2001/REC-SVG-20010904/DTD/svg10.dtd">
<svg version="1.0" xmlns="http://www.w3.org/2000/svg"
 width="700.000000pt" height="700.000000pt" viewBox="0 0 700.000000 700.000000"
 preserveAspectRatio="xMidYMid meet">
<metadata>
Created by potrace 1.11, written by Peter Selinger 2001-2013
</metadata>
<g transform="translate(0.000000,700.000000) scale(0.100000,-0.100000)"
fill="#000000" stroke="none">
<path d="M0 3500 l0 -3500 3500 0 3500 0 0 3500 0 3500 -3500 0 -3500 0 0
-3500z m2210 2650 c46 -25 45 -76 -1 -100 -53 -29 -96 60 -47 94 27 19 24 19
48 6z m-1520 -646 c0 -28 -25 -42 -49 -27 -23 15 -26 45 -6 59 25 18 55 0 55
-32z m-230 10 c11 -12 10 -18 -3 -32 -16 -15 -18 -15 -34 0 -13 14 -14 20 -3
32 7 9 16 16 20 16 4 0 13 -7 20 -16z m975 -255 c351 -43 593 -223 739 -550
20 -47 154 -459 296 -915 142 -456 261 -822 264 -814 3 8 132 499 286 1090
155 591 288 1099 296 1128 l15 52 218 0 219 0 31 -87 c17 -49 200 -569 405
-1158 206 -588 377 -1063 380 -1055 28 74 529 1766 533 1801 3 27 1 49 -5 53
-5 3 -66 10 -134 15 -126 8 -166 20 -201 59 -64 71 -60 245 7 320 53 59 35 58
701 56 530 -1 614 -3 640 -17 71 -37 110 -119 103 -219 -7 -117 -62 -182 -161
-192 -29 -3 -95 -9 -147 -15 -174 -17 -265 -70 -319 -185 -16 -33 -237 -739
-492 -1569 l-464 -1507 -205 2 -204 3 -395 1163 c-218 640 -397 1158 -400
1150 -2 -7 -145 -530 -316 -1163 l-311 -1150 -207 -3 -206 -2 -65 202 c-36
112 -245 768 -466 1458 -430 1349 -452 1410 -548 1512 -59 63 -94 81 -226 114
-59 15 -118 36 -133 47 -41 32 -63 92 -63 173 0 92 28 149 90 183 67 38 235
45 445 20z m-902 -1941 c7 -21 -4 -38 -23 -38 -10 0 -20 6 -23 13 -7 20 4 37
23 37 10 0 20 -6 23 -12z m165 -1059 c4 -19 -27 -34 -41 -20 -14 14 0 43 20
39 10 -2 19 -10 21 -19z m1292 -369 c0 -24 -26 -38 -42 -22 -16 16 -2 42 22
42 13 0 20 -7 20 -20z m1750 -110 c0 -13 -7 -20 -20 -20 -13 0 -20 7 -20 20 0
13 7 20 20 20 13 0 20 -7 20 -20z m-1346 -776 c8 -21 -1 -34 -24 -34 -22 0
-33 23 -17 39 16 16 34 14 41 -5z m-1387 -190 c-9 -9 -28 6 -21 18 4 6 10 6
17 -1 6 -6 8 -13 4 -17z m5379 -286 c5 -16 1 -26 -15 -39 -39 -31 -82 1 -66
50 12 38 68 30 81 -11z m-1301 -93 c0 -27 -3 -30 -30 -30 -21 0 -31 5 -33 18
-5 25 17 49 42 45 16 -2 21 -10 21 -33z m-309 -70 c33 -50 -20 -104 -71 -71
-29 19 -32 51 -8 78 23 26 59 23 79 -7z m359 -253 c8 -20 -19 -47 -39 -39 -26
10 -32 38 -12 53 21 15 42 9 51 -14z"/>
</g>
</svg>
